<?xml version="1.0" encoding="UTF-8" standalone="no"?>
<!-- Created with Inkscape (http://www.inkscape.org/) -->

<svg
   id="svg22791"
   version="1.0"
   viewBox="0 0 549.99998 549.99999"
   inkscape:version="1.3 (0e150ed6c4, 2023-07-21)"
   sodipodi:docname="02-thumbnail.svg"
   width="550"
   height="550"
   xmlns:inkscape="http://www.inkscape.org/namespaces/inkscape"
   xmlns:sodipodi="http://sodipodi.sourceforge.net/DTD/sodipodi-0.dtd"
   xmlns="http://www.w3.org/2000/svg"
   xmlns:svg="http://www.w3.org/2000/svg"
   xmlns:rdf="http://www.w3.org/1999/02/22-rdf-syntax-ns#"
   xmlns:cc="http://creativecommons.org/ns#"
   xmlns:dc="http://purl.org/dc/elements/1.1/">
  <defs
     id="defs1" />
  <sodipodi:namedview
     id="namedview1"
     pagecolor="#ffffff"
     bordercolor="#000000"
     borderopacity="0.25"
     inkscape:showpageshadow="2"
     inkscape:pageopacity="0.0"
     inkscape:pagecheckerboard="0"
     inkscape:deskcolor="#d1d1d1"
     inkscape:zoom="0.5165903"
     inkscape:cx="-318.43416"
     inkscape:cy="562.34118"
     inkscape:window-width="2491"
     inkscape:window-height="1417"
     inkscape:window-x="2221"
     inkscape:window-y="1140"
     inkscape:window-maximized="1"
     inkscape:current-layer="layer1" />
  <metadata
     id="metadata1">
    <rdf:RDF>
      <cc:Work>
        <dc:format>image/svg+xml</dc:format>
        <dc:type
           rdf:resource="http://purl.org/dc/dcmitype/StillImage" />
        <cc:license
           rdf:resource="http://creativecommons.org/publicdomain/zero/1.0/" />
        <dc:publisher>
          <cc:Agent
             rdf:about="http://openclipart.org/">
            <dc:title>Openclipart</dc:title>
          </cc:Agent>
        </dc:publisher>
      </cc:Work>
      <cc:License
         rdf:about="http://creativecommons.org/publicdomain/zero/1.0/">
        <cc:permits
           rdf:resource="http://creativecommons.org/ns#Reproduction" />
        <cc:permits
           rdf:resource="http://creativecommons.org/ns#Distribution" />
        <cc:permits
           rdf:resource="http://creativecommons.org/ns#DerivativeWorks" />
      </cc:License>
    </rdf:RDF>
  </metadata>
  <g
     id="layer1"
     transform="matrix(1,0,0,0.72835284,-34.618433,-67.008089)">
    <path
       sodipodi:type="star"
       style="fill:#ecec7d;fill-opacity:1;stroke:none"
       id="path1"
       inkscape:flatsided="true"
       sodipodi:sides="6"
       sodipodi:cx="298.22333"
       sodipodi:cy="311.36908"
       sodipodi:r1="312.73135"
       sodipodi:r2="156.36568"
       sodipodi:arg1="-2.6179939"
       sodipodi:arg2="-2.0943951"
       inkscape:rounded="0"
       inkscape:randomized="0"
       d="M 27.390027,155.00341 298.22332,-1.3622742 569.05662,155.0034 l 1e-5,312.73135 L 298.22333,624.10043 27.390034,467.73476 Z"
       inkscape:transform-center-y="59.483558"
       transform="matrix(0.76082642,-0.60309141,0.43926333,1.0445849,-54.050772,324.16824)"
       inkscape:transform-center-x="-34.342851" />
    <path
       id="path23769"
       style="fill:#284989;stroke-width:0.728639"
       d="m 210.40079,815.57987 c -0.94828,-2.14992 -2.99025,-13.52094 -4.54542,-25.26987 -1.55517,-11.75733 -3.33162,-21.37315 -3.95114,-21.37315 -0.62588,0 -2.05462,2.72099 -3.18623,6.03823 -3.07243,9.01956 -15.43164,24.29568 -19.65464,24.29568 -4.75403,0 -4.64656,-1.18412 2.19368,-23.38868 3.19885,-10.39684 5.8161,-19.78591 5.8161,-20.86927 0,-1.08335 -3.17988,0.17637 -7.06782,2.79657 -3.88162,2.62021 -10.05174,5.35799 -13.71021,6.09702 -3.65655,0.73903 -7.96112,1.7804 -9.56498,2.31787 -1.73091,0.57947 -3.34615,-0.38631 -3.97263,-2.37666 -0.74916,-2.36826 2.49649,-7.69265 11.18588,-18.33303 l 12.24354,-14.99061 -7.4402,-0.0167 c -8.2734,-0.008 -19.28607,-3.19966 -20.70659,-5.99622 -0.50765,-0.99938 3.95558,-6.05503 9.91772,-11.22825 10.78445,-9.36389 12.2802,-13.05064 5.33058,-13.13462 -5.32235,-0.0673 -18.17532,-7.63388 -16.97543,-9.99373 1.01529,-1.99875 47.69522,-30.4011 49.96476,-30.4011 3.97012,0 -5.21553,6.87803 -24.30751,18.20706 -21.66942,12.84907 -21.88121,13.04224 -17.1316,15.4609 2.64443,1.35209 8.7349,3.07369 13.53383,3.83791 4.7989,0.75585 8.71845,1.95678 8.71212,2.6622 -0.007,0.70545 -5.2155,5.82828 -11.57784,11.38783 -6.3604,5.56792 -11.58983,10.71595 -11.62081,11.45498 -0.10503,2.47744 13.24049,4.08989 21.9027,2.64542 l 8.5977,-1.44449 -14.36956,18.87052 c -7.90928,10.38004 -14.11797,19.18124 -13.79935,19.57595 1.43632,1.74682 20.17809,-5.83667 25.98788,-10.51441 3.55288,-2.86374 7.28277,-5.19841 8.28795,-5.19841 2.59196,0 0.60058,9.85096 -6.09426,30.17435 -3.08507,9.37227 -5.2345,17.50163 -4.76669,18.0643 1.66897,2.03232 12.39084,-12.70632 16.92992,-23.27952 7.04888,-16.40988 7.24486,-16.14113 12.04315,16.49384 1.96608,13.34458 4.20402,25.03473 4.98161,25.97531 0.77127,0.94899 2.6046,-3.60278 4.06495,-10.1029 10.62073,-47.26447 10.92417,-47.46602 23.31499,-15.64565 4.06495,10.43883 7.719,18.97968 8.12359,18.97968 0.39827,0 1.5931,-8.86837 2.64887,-19.71872 3.31265,-34.12144 3.46437,-34.87727 6.89081,-34.87727 1.92816,0 5.83508,4.69453 10.24141,12.3032 3.91953,6.76888 7.30806,11.09389 7.53565,9.60742 0.22758,-1.48646 -0.60058,-15.8976 -1.83336,-32.02193 -1.2454,-16.23352 -1.61205,-30.17434 -0.82814,-31.24091 0.84081,-1.13375 1.41608,-0.34431 1.41608,1.92316 0,3.05691 0.42358,3.33405 2.06726,1.33531 1.64368,-1.99875 1.61206,-2.84695 -0.13908,-4.16545 -3.496,-2.62862 -20.35637,-6.76048 -21.57017,-5.29081 -0.6006,0.73903 -1.47932,9.61582 -1.94713,19.73551 -0.53736,11.63977 -1.57415,18.68577 -2.83219,19.18966 -1.08735,0.43669 -4.22933,-4.03949 -6.973,-9.94335 -2.74369,-5.91225 -5.66439,-12.09325 -6.48624,-13.73928 -1.09367,-2.1835 -2.35804,0.52908 -4.70345,10.11131 -2.52875,10.31286 -3.9638,13.227 -6.76438,13.72248 -3.95749,0.69704 -4.29885,-0.20995 -7.28279,-19.32401 -1.08734,-6.95362 -2.44023,-12.61395 -3.00287,-12.58875 -0.56896,0.0253 -2.37069,3.58599 -4.00173,7.90262 -3.0092,7.93618 -6.72014,11.32062 -9.84313,8.96915 -1.61207,-1.20931 -0.97357,-12.42918 1.26438,-22.09538 0.85977,-3.69515 0.34769,-4.07308 -4.54543,-3.37602 -4.26092,0.60466 -6.41666,-0.37793 -9.47013,-4.34182 l -3.95749,-5.12285 5.6075,-5.6519 c 3.07874,-3.10731 8.22474,-8.55767 11.43623,-12.10165 l 5.82875,-6.44134 -6.37875,-7.97819 c -4.03966,-5.04726 -7.44715,-7.64227 -9.28047,-7.05441 -2.28852,0.72224 -2.90174,-0.37791 -2.90174,-5.26559 0,-4.51819 0.53103,-5.64353 1.9661,-4.19905 3.05345,3.09049 8.54714,-5.08925 5.9615,-8.87679 -1.07471,-1.57044 -3.42012,-2.39346 -5.21552,-1.82239 -4.76668,1.52007 -4.01439,-0.77263 2.55402,-7.79344 6.5368,-6.98721 7.42818,-11.72372 2.49082,-13.29417 -1.82701,-0.57946 -3.3253,-2.01554 -3.3253,-3.19128 0,-1.17572 -1.23277,-3.79594 -2.75001,-5.82826 -1.64368,-2.2171 -1.97874,-3.69517 -0.82816,-3.69517 1.05576,0 1.92817,1.13374 1.94081,2.52783 0.0188,1.6964 0.53102,1.55364 1.58046,-0.46191 1.06839,-2.05752 0.67012,-4.25782 -1.2707,-7.04599 -2.71206,-3.89672 -2.69942,-3.93871 0.36034,-1.05816 3.0029,2.83015 3.11669,2.67899 2.01037,-2.72939 -0.71438,-3.49359 -0.55001,-5.2656 0.42354,-4.52657 1.25808,0.94059 12.15062,-36.12019 11.84084,-40.29404 -0.0379,-0.57947 1.06208,-3.72877 2.45289,-6.99561 1.39081,-3.26686 5.04482,-14.40272 8.1299,-24.74918 3.07875,-10.33806 7.85806,-24.84996 10.62072,-32.24869 l 5.01954,-13.44535 -15.19142,5.06406 c -8.35748,2.77976 -16.50635,5.52594 -18.10578,6.09701 -1.59942,0.57107 -2.90804,2.80498 -2.90804,4.96328 0,2.1583 -0.56266,3.5188 -1.24541,3.01491 -0.68277,-0.50389 -1.37817,3.49361 -1.54254,8.89359 -0.16437,5.39997 -1.13793,11.44659 -2.16839,13.43695 -1.49196,2.88054 -1.73852,1.46126 -1.19483,-6.97043 l 0.67644,-10.59838 -4.14081,5.03885 c -3.57185,4.3502 -7.81382,6.1474 -12.40348,5.26561 -0.68908,-0.12598 -1.06208,0.89859 -0.83449,2.29267 0.23391,1.41087 -0.86609,2.25909 -2.4908,1.93156 -1.98192,-0.40311 -2.90996,0.72224 -2.90996,3.5356 0,3.00653 -1.07978,4.13186 -3.96002,4.13186 -3.7381,0 -4.02068,0.8818 -5.04356,15.67083 -1.84283,26.66395 -2.97192,36.90124 -4.06938,36.90124 -0.58034,0 -2.37322,-5.45876 -3.98466,-12.13525 -1.61144,-6.66808 -3.57122,-12.12684 -4.3545,-12.12684 -0.78391,0 -2.29861,5.39998 -3.36575,12.00087 -2.29609,14.19278 -6.69611,22.34733 -9.69267,17.95512 -1.05512,-1.54525 -2.14564,-8.53246 -2.42253,-15.52808 l -0.50449,-12.70631 -5.81736,16.82978 c -3.1995,9.2547 -6.52858,16.60303 -7.39847,16.31749 -0.89519,-0.29393 -1.40091,-8.63323 -1.16576,-19.21483 l 0.41662,-18.68575 -3.57501,7.07959 c -7.51415,14.87302 -16.53291,22.97718 -16.53291,14.84782 0,-1.83919 2.617888,-9.03635 5.81749,-15.99837 3.19955,-6.96201 5.81738,-12.99185 5.81738,-13.41175 0,-0.41991 -1.6074,-0.907 -3.57198,-1.08335 -5.25661,-0.4787 -7.537542,-3.93871 -5.396958,-8.17135 1.500348,-2.97291 16.470318,-16.40986 26.672518,-23.95136 2.97886,-2.2003 2.97507,-2.40185 -0.12389,-6.60931 -3.16031,-4.29141 -3.15525,-4.40898 0.41533,-10.28765 4.23944,-6.97882 4.43226,-8.8264 1.25489,-12.03446 -1.98823,-2.00715 -1.30736,-4.66096 4.3507,-16.93058 11.81683,-25.63096 18.07608,-34.03746 38.14607,-51.21996 10.37416,-8.88518 19.85695,-16.88016 21.06442,-17.76196 3.05977,-2.21709 9.83047,5.94585 11.18968,13.49573 0.60058,3.34244 1.57414,14.36914 2.16208,24.51404 l 1.06838,18.44222 4.46956,-5.34119 c 2.45919,-2.93933 4.79828,-4.95488 5.19657,-4.46778 0.39194,0.47869 3.3,-0.97419 6.45461,-3.24168 3.15459,-2.25908 12.32128,-6.16419 20.36901,-8.67523 l 14.62876,-4.56017 11.01899,-22.23814 c 13.68681,-27.63812 28.63168,-54.03333 29.79489,-52.62245 0.48047,0.58786 -1.61207,5.38318 -4.64655,10.66557 -7.0868,12.32839 -3.79944,8.23853 12.58048,-15.66244 17.02476,-24.84156 37.32422,-50.74968 38.85412,-49.59913 0.66379,0.50386 7.49771,-6.11382 15.19141,-14.68827 7.6937,-8.57447 17.34716,-18.91251 21.45637,-22.97718 10.10864,-9.99374 33.99892,-29.40172 38.19031,-31.02256 1.86494,-0.72223 2.96496,-2.15831 2.44024,-3.18287 -0.52471,-1.03298 1.25173,-1.88118 3.93852,-1.88118 5.95519,0 7.75059,-3.05691 16.65807,-28.32676 6.38508,-18.12898 6.52415,-19.00489 4.05864,-25.29339 -2.30747,-5.89378 -2.29482,-7.45582 0.15173,-16.38133 3.29368,-12.00843 12.65003,-25.03471 17.97936,-25.02379 6.22702,0.0117 14.12301,7.15096 16.13968,14.59924 1.44771,5.31768 1.32759,8.97253 -0.53736,16.49554 -4.64024,18.76805 -12.08106,27.2728 -21.36786,24.43426 -3.42644,-1.04138 -4.3937,0.58786 -10.26669,17.27486 l -6.48623,18.42542 2.68047,9.48145 c 5.66438,20.05466 7.04887,38.75721 6.9098,93.39521 -0.14541,55.18386 -4.6845,120.51263 -8.96439,128.78475 -1.50461,2.92254 -1.71955,1.62924 -1.07473,-6.45814 0.44253,-5.55953 0.40461,-8.28891 -0.0822,-6.06342 -5.13333,23.29632 -13.28221,48.75933 -25.83107,80.68049 -14.77418,37.57306 -14.97015,38.2701 -11.68912,41.44458 5.59484,5.42517 11.51842,20.92805 13.71842,35.91024 l 2.08622,14.21798 8.88852,-5.2488 c 4.89311,-2.88055 8.9075,-6.58411 8.92647,-8.22174 0.019,-1.90637 1.02413,-1.25131 2.80689,1.83919 2.10519,3.66157 2.80691,9.60741 2.90806,24.71559 0.0697,10.9427 -0.34138,19.89508 -0.923,19.89508 -1.91551,0 -2.70574,10.1029 -0.79022,10.17009 1.0115,0.042 0.63218,1.19252 -0.84714,2.56141 -1.4793,1.36889 -3.23046,5.48396 -3.88793,9.13713 -2.83219,15.66243 -15.76671,48.59977 -18.63683,47.44082 -2.27587,-0.92377 -5.01324,3.29206 -6.35346,9.79218 -0.89138,4.31662 -0.39196,5.56794 2.77529,6.89484 3.31266,1.39408 2.87012,1.7384 -3.0661,2.40185 l -6.93508,0.78102 0.2845,12.52996 c 0.26551,11.79093 0.0632,12.52156 -3.45807,12.37039 -2.05459,-0.0839 -3.76782,-0.0839 -3.79943,0 -0.0379,0.0925 -0.48045,3.80434 -0.9862,8.24693 -1.19484,10.46403 -3.4391,13.32777 -6.49888,8.28891 -2.62356,-4.33341 -2.30747,-4.99685 -6.5115,13.45375 -3.50231,15.34332 -7.02358,15.30133 -9.11612,-0.10915 l -0.92931,-6.81084 -5.36725,9.27149 c -6.75806,11.67335 -10.57015,12.37039 -9.33739,1.68801 0.81553,-7.04599 4.64025,-24.53922 6.63163,-30.30872 0.62588,-1.83078 -0.53103,-2.17509 -4.2546,-1.2681 -2.81953,0.68864 -5.1207,0.45349 -5.1207,-0.52069 0.007,-0.97418 2.56034,-6.92843 5.68334,-13.227 3.123,-6.29857 5.24083,-11.98407 4.70979,-12.63073 -0.53737,-0.65504 -2.87013,-1.18412 -5.18392,-1.18412 -2.95862,0 -3.69196,-0.63826 -2.45921,-2.13311 1.84598,-2.25069 9.96325,-0.65506 11.43623,2.24228 0.46783,0.92379 -1.40976,6.1558 -4.17241,11.62296 -2.76897,5.46716 -5.02588,10.39685 -5.02588,10.95951 0,0.55427 1.86495,0.57107 4.15347,0.042 4.96896,-1.15894 5.0385,-0.24354 1.09368,13.84846 -4.03335,14.39433 -5.63277,24.59801 -3.62244,23.08635 0.8661,-0.64665 3.97645,-5.2404 6.90348,-10.20368 2.93333,-4.96327 5.91092,-9.02796 6.6253,-9.02796 0.70806,0 1.51725,4.77852 1.7954,10.6152 l 0.49942,10.61519 1.98507,-7.07959 c 1.09367,-3.88833 2.80057,-10.94272 3.80576,-15.67085 1.96608,-9.28828 4.1661,-10.9847 5.85404,-4.51817 1.64368,6.31536 4.14713,2.63701 4.14713,-6.09701 0,-8.70883 2.21264,-11.72375 5.89196,-8.01179 2.05461,2.08272 2.40231,1.12534 2.30115,-6.39935 -0.20229,-15.09137 -5.33565,-21.5747 -7.36495,-9.29669 -2.1684,13.12623 -2.573,14.01642 -5.16496,11.39622 -2.83851,-2.86375 -2.62357,-3.0989 -7.13105,7.76824 -5.47472,13.21019 -9.14772,9.80057 -4.36207,-4.04789 0.87872,-2.52783 0.45516,-3.53559 -1.48564,-3.53559 -2.50977,0 -2.50977,-0.48709 -0.0252,-6.33216 2.73105,-6.42454 2.21899,-7.97819 -3.43908,-10.53121 -0.91666,-0.41152 -0.39828,-2.47745 1.1569,-4.61896 2.68677,-3.68676 3.14829,-9.34708 0.97356,-11.98406 -1.30861,-1.59566 -7.15001,2.1667 -15.00807,9.6662 -8.06669,7.68425 -8.16152,3.78753 -0.10744,-4.29143 3.36956,-3.38444 6.29657,-7.54989 6.50519,-9.25471 0.2023,-1.71321 -0.25919,-2.637 -1.03679,-2.05752 -1.71954,1.2933 -10.80403,-12.7819 -9.37529,-14.5203 0.56263,-0.68865 2.05459,-0.20996 3.30632,1.05815 1.83334,1.84758 2.78793,0.73903 4.8299,-5.57633 2.40862,-7.45751 2.35805,-8.09577 -0.90405,-12.06806 -4.67815,-5.68551 -2.12412,-8.15455 2.7121,-2.6286 5.44942,6.22298 7.20059,5.54273 10.77876,-4.20745 1.73218,-4.71973 6.51151,-14.5287 10.62071,-21.79305 l 7.46611,-13.20181 -2.75001,-10.05252 c -1.51724,-5.52594 -4.58966,-14.36913 -6.83392,-19.65992 l -4.08392,-9.60743 -7.2322,14.25996 c -3.97645,7.83543 -7.59887,13.79807 -8.04772,13.25221 -0.45518,-0.5543 2.58564,-7.61708 6.75806,-15.70446 4.1661,-8.08736 7.24485,-15.11655 6.83392,-15.61205 -0.92298,-1.12534 -0.0885,-2.40185 -11.71438,17.97193 -5.39255,9.44786 -18.21959,30.18275 -28.50525,46.06353 -10.27934,15.8808 -18.69372,29.65367 -18.69372,30.60265 0,0.9406 1.68162,2.27589 3.73622,2.96454 2.98391,0.99097 3.26208,1.62083 1.37816,3.0905 -2.39599,1.88116 -10.55117,1.55364 -24.41499,-0.97418 l -7.67474,-1.40249 1.1885,12.39558 c 0.64483,6.81927 0.73336,12.39561 0.18334,12.39561 -0.54368,0 -2.53505,-1.87279 -4.41898,-4.16546 -4.8362,-5.88707 -7.10575,-4.07308 -9.19829,7.36511 -1.01781,5.55114 -2.66781,9.72499 -3.74253,9.43946 -1.08736,-0.28553 -1.90921,1.90637 -1.90289,5.05565 0.019,7.82702 3.07875,50.53973 4.27359,59.65166 1.09368,8.38129 -1.11899,10.1365 -3.81841,3.03171 -0.94827,-2.50262 -5.27244,-10.38844 -9.6029,-17.51842 -5.68334,-9.35547 -8.21841,-12.16884 -9.10346,-10.11131 -0.67012,1.57045 -2.11783,13.32778 -3.21783,26.10967 -1.09368,12.7903 -2.66781,24.08573 -3.49598,25.09351 -2.59828,3.17448 -6.62531,-2.91413 -14.42647,-21.82665 -5.24081,-12.6811 -7.896,-17.30006 -8.80003,-15.26773 -0.70805,1.59565 -3.31266,11.54738 -5.78449,22.11219 -5.70864,24.37126 -8.61036,29.10778 -12.46037,20.35697 z m 19.54717,-89.19616 c 1.55518,-6.99561 3.69829,-13.06742 4.76035,-13.49573 1.06207,-0.42831 4.98795,5.40838 8.71784,12.97506 l 6.78967,13.75606 -0.0127,-19.20643 -0.007,-19.20644 -12.0368,-7.70104 c -6.61265,-4.22425 -15.38739,-10.66558 -19.49027,-14.29356 l -7.45979,-6.60931 -10.27302,10.25409 c -5.6454,5.64351 -10.3299,11.37942 -10.40575,12.74828 -0.19599,3.5776 8.11725,5.60154 11.72704,2.86377 1.67528,-1.27652 3.43275,-2.31788 3.9069,-2.31788 1.44769,0 0.92298,10.72436 -0.923,18.82014 -2.92702,12.81548 -0.55633,13.26058 4.23564,0.78941 2.47818,-6.44974 5.37358,-11.39622 6.42301,-10.9847 1.41608,0.54586 8.22473,26.68915 9.29945,35.68348 0.32872,2.77139 2.28219,-3.0149 4.7477,-14.0752 z m 155.56817,7.00403 c 0.55632,-1.76361 1.94081,-2.82176 3.08507,-2.35988 1.17586,0.47869 2.80691,-1.86437 3.75519,-5.39158 1.58677,-5.91226 1.37183,-6.40773 -4.15978,-9.52343 -4.86151,-2.73777 -6.22071,-2.83856 -8.1868,-0.59627 -2.01668,2.30109 -1.78277,3.25006 1.65,6.63449 3.83103,3.77075 3.87528,4.10668 1.10632,7.83543 -1.59312,2.14152 -2.39598,4.50137 -1.78908,5.2488 1.82702,2.2171 3.46436,1.55366 4.53908,-1.84756 z m 23.26442,-20.22261 c 2.50347,-7.91941 -1.12529,-15.35173 -5.78448,-11.84972 -1.74483,1.3101 -2.05462,11.69855 -0.40462,13.70568 1.96611,2.38507 5.15232,1.43607 6.1891,-1.85596 z m -9.12874,-11.45501 c 0.24654,-5.21522 -2.3391,-4.30822 -4.55175,1.60403 -1.48563,3.97231 -1.45403,5.76109 0.15172,7.88581 1.71955,2.2675 2.25691,1.99875 3.15461,-1.61244 0.59425,-2.38504 1.15691,-5.93744 1.24542,-7.8774 z m -6.90979,0.20155 c 1.77011,-5.08924 1.32126,-7.78503 -1.30863,-7.78503 -1.97242,0 -5.31667,11.72374 -4.05231,14.20958 1.37184,2.69578 2.76897,1.02457 5.36094,-6.42455 z m -113.25601,-0.80621 c 1.32126,-6.40775 0.60689,-7.28115 -6.28394,-7.67586 -4.48219,-0.25195 -5.6138,0.50388 -6.03103,4.03108 -0.373,3.19968 0.72068,4.88769 4.15978,6.40775 6.73276,2.98973 6.98563,2.90574 8.15519,-2.76297 z m 107.61058,-9.50665 c -1.40978,-2.77977 -3.48965,-1.57044 -6.3092,3.66997 -2.26955,4.21585 -2.40231,5.7695 -0.71437,8.24693 1.78908,2.6202 2.47817,2.11632 4.93736,-3.67836 1.57415,-3.69517 2.50978,-7.40712 2.08621,-8.23854 z m -122.02441,-1.78879 c 0.0632,-0.70544 -1.32759,-1.7384 -3.09771,-2.30108 -4.42529,-1.41087 -6.1638,4.71133 -2.3138,8.13776 2.5161,2.23389 3.13563,2.09112 4.12816,-0.96579 0.64484,-1.97354 1.22014,-4.16546 1.28335,-4.87089 z m 160.06302,-7.95299 c 7.88334,-19.08888 9.35001,-26.15166 5.43047,-26.15166 -4.64656,0 -22.27822,-12.32841 -26.62765,-18.61859 l -4.0207,-5.81146 -7.70001,12.72311 c -9.14773,15.10816 -12.52993,22.70003 -13.14315,29.4437 -0.38563,4.29983 0.89772,5.72751 9.37531,10.40524 5.39887,2.98973 9.2552,6.11381 8.56612,6.94523 -0.68908,0.83981 -0.1011,0.99097 1.30229,0.33592 1.40347,-0.65504 5.87301,0.58788 9.92531,2.77137 4.05232,2.1835 8.11727,3.74555 9.02762,3.47682 0.91666,-0.26874 4.4569,-7.24755 7.86439,-15.51968 z m -45.60586,10.16169 c 3.18621,-6.1978 0.56265,-8.89358 -3.11035,-3.19968 -3.73622,5.7695 -3.97013,7.33154 -1.1,7.33154 1.15056,0 3.04713,-1.85597 4.21035,-4.13186 z m -90.06113,-1.09175 c -0.55633,-1.7552 -1.0115,-4.94648 -1.0115,-7.0796 0,-2.13311 -0.65748,-3.87992 -1.47298,-3.87992 -2.17473,0 -3.22415,11.8833 -1.13794,12.94147 3.50863,1.77199 4.61495,1.16733 3.62242,-1.98195 z m 87.08352,-9.68301 c 0,-0.62986 -1.12528,-0.62145 -2.49712,0.0168 -1.57414,0.73902 -2.4908,-0.0253 -2.4908,-2.08274 0,-5.36638 -2.54139,-3.68676 -5.38622,3.57759 -3.76783,9.61582 -0.84712,12.38719 5.47472,5.20681 2.69312,-3.06529 4.89942,-6.08861 4.89942,-6.71847 z m -121.67038,6.44974 c 0.56265,-3.5524 -5.323,-8.70043 -7.80749,-6.83604 -0.79023,0.59625 -1.75746,3.14088 -2.14943,5.6519 -0.62586,3.95551 -0.0253,4.58537 4.34944,4.58537 3.42644,0 5.24081,-1.10014 5.60748,-3.40123 z m 26.27363,-6.10542 c 0.13907,-5.89545 -0.34771,-6.9872 -2.76899,-6.21458 -3.76149,1.20092 -5.88563,10.66557 -2.90172,12.96665 3.68564,2.84696 5.48737,0.69705 5.67071,-6.75207 z m -38.33572,0.15117 c 1.80804,-6.94522 -6.15117,-11.11907 -8.28795,-4.35021 -0.68909,2.18351 -0.0189,4.45099 1.80173,6.06343 4.00805,3.56918 5.19023,3.25846 6.48622,-1.71322 z m 29.76328,-5.30758 c 0.75862,-3.01494 0.44886,-4.55178 -0.91666,-4.55178 -1.13161,0 -3.33795,-1.41088 -4.90577,-3.13249 -2.61724,-2.88054 -2.99656,-2.6118 -4.70346,3.33406 -2.55403,8.91876 -2.4592,9.32187 2.71841,11.47178 4.84886,2.00714 5.70863,1.22613 7.80748,-7.12157 z m -42.29953,6.78565 c 0,-0.4367 -1.15688,-1.33529 -2.57931,-1.99875 -1.47932,-0.68864 -2.14311,-0.34432 -1.5615,0.79783 0.97358,1.92316 4.14081,2.83854 4.14081,1.20092 z m 3.32531,-11.50538 c 0,-0.78103 -1.10633,-1.93996 -2.46554,-2.56982 -3.46437,-1.61244 -7.05517,6.63449 -3.93851,9.02794 2.09886,1.61244 6.40405,-2.72937 6.40405,-6.45812 z m 25.69833,-1.20094 c 0.8977,-5.19842 0.46781,-6.85284 -2.21265,-8.59964 -5.12702,-3.33404 -6.17012,-2.70418 -8.09829,4.94647 -1.6753,6.64289 -1.50461,7.29794 2.62987,9.96013 5.12704,3.30886 6.16382,2.46065 7.68107,-6.30696 z m -34.78283,-0.8566 c 0.6132,-2.35987 0.24654,-5.27401 -0.84082,-6.56731 -1.46668,-1.7552 -2.74368,-1.13375 -5.22185,2.55302 -2.56667,3.82953 -2.81322,5.2488 -1.1316,6.54211 3.60977,2.78817 6.03104,1.93157 7.19427,-2.52782 z m 21.36153,-2.63701 c 0.55633,-2.67898 1.44771,-6.25657 1.97874,-7.95298 0.65748,-2.07433 -0.75862,-4.17386 -4.29885,-6.39934 -2.90174,-1.83079 -5.48737,-3.02332 -5.74024,-2.6706 -0.25921,0.36112 -1.70692,3.61117 -3.21151,7.23076 l -2.75001,6.5673 5.44312,4.03948 c 6.90346,5.11443 7.36496,5.07245 8.57875,-0.81462 z m -28.89719,-7.50789 c 0,-0.82302 -1.23276,-2.98972 -2.73736,-4.82051 -2.54138,-3.0905 -2.98392,-3.02331 -6.23335,0.99098 l -3.49599,4.31662 4.08393,4.08148 c 3.88163,3.87152 4.19138,3.89671 6.23333,0.49548 1.18219,-1.96515 2.14944,-4.24104 2.14944,-5.06405 z m 84.76975,7.44072 c 0,-0.4955 -0.75232,-1.45288 -1.66267,-2.14151 -0.91666,-0.68866 -1.66264,-0.28554 -1.66264,0.89018 0,1.17573 0.74598,2.14152 1.66264,2.14152 0.91035,0 1.66267,-0.40311 1.66267,-0.89019 z m -14.90061,-5.04727 c -2.17473,-4.92968 -2.40231,-10.63198 -0.26554,-6.53371 1.1253,2.15832 1.61208,2.04075 2.44657,-0.60467 0.61322,-1.93995 0.36034,-2.79657 -0.60057,-2.07432 -0.90404,0.68024 -1.61839,-0.8566 -1.58679,-3.43482 l 0.0569,-4.66935 3.14828,4.59375 3.14829,4.59378 0.58162,-4.59378 c 0.53735,-4.20743 0.85342,-3.99748 3.78046,2.48585 2.42758,5.38319 3.33793,6.223 3.81839,3.5104 0.34137,-1.95675 1.31494,-3.0401 2.16207,-2.41025 0.84081,0.63826 1.53621,-0.26034 1.53621,-1.99034 0,-1.7384 0.79655,-3.1577 1.77012,-3.1577 0.97358,0 1.36552,1.59566 0.87242,3.54401 -0.49943,1.93995 -0.12643,4.89609 0.82818,6.5673 1.34653,2.36826 1.49826,2.03234 0.67641,-1.52005 -0.61952,-2.67059 -0.32241,-4.54337 0.72702,-4.54337 0.97358,0 1.77012,-2.27589 1.77012,-5.05564 0,-2.77978 0.80922,-5.05567 1.79542,-5.05567 1.11263,0 1.42872,2.48584 0.82184,6.56731 -0.89771,6.08862 -0.84082,6.1978 0.81551,1.52007 0.97988,-2.77978 1.48564,-7.55829 1.1253,-10.6152 -0.36036,-3.05691 -0.0379,-5.55953 0.71436,-5.55953 0.75862,0 1.37816,-2.91414 1.37816,-6.47493 0,-4.94649 0.45517,-5.91226 1.94714,-4.09828 1.49196,1.81399 1.49196,3.59439 0,7.57509 -2.69311,7.19716 -2.33909,9.13711 0.54368,2.99812 1.30861,-2.77978 2.4023,-7.10479 2.43391,-9.60743 0.0317,-2.50263 0.8092,-4.55176 1.71954,-4.55176 0.91667,0 1.6753,-2.95614 1.68794,-6.56731 0.019,-4.98847 0.41723,-5.83667 1.63737,-3.5356 1.37815,2.58661 1.61837,2.51943 1.63735,-0.51228 0.0127,-1.93996 0.72069,-3.5356 1.56782,-3.5356 0.84714,0 1.8839,1.59564 2.30116,3.5356 0.45517,2.13311 0.83448,1.27651 0.94827,-2.14152 0.11377,-3.22486 0.91667,-5.13962 1.85862,-4.42579 0.91035,0.68864 1.66265,0.40311 1.66265,-0.62145 0,-1.03298 -6.54312,-4.87931 -14.54659,-8.54927 -19.67992,-9.02795 -49.72769,-27.63812 -66.89786,-41.43619 -7.76955,-6.24818 -14.78681,-11.52218 -15.58968,-11.71534 -2.26955,-0.56268 -9.34369,-9.40586 -9.34369,-11.69015 0,-1.12534 -0.74599,-1.48646 -1.66266,-0.79781 -0.91034,0.68024 -1.65632,-0.0588 -1.65632,-1.66283 0,-1.59563 -1.03678,-3.9471 -2.30116,-5.22361 -1.88391,-1.89797 -3.37587,0.91539 -8.16783,15.41889 l -5.86035,17.74518 3.17988,6.30696 c 3.72989,7.40713 4.4253,13.21021 1.09369,9.16232 -1.13795,-1.38568 -2.1684,-3.39284 -2.28221,-4.44259 -0.11377,-1.05816 -0.30342,-2.83016 -0.41723,-3.94709 -0.11377,-1.10855 -0.81552,-2.02396 -1.56149,-2.02396 -1.17588,0 -1.46667,12.30322 -0.32243,13.65531 0.24025,0.27714 0.52472,1.18413 0.63852,2.01555 0.12011,0.83981 1.94713,4.47618 4.06496,8.08735 2.11781,3.61958 3.09138,6.57571 2.16839,6.57571 -0.91667,0 -2.16839,-0.97418 -2.76899,-2.15831 -0.60689,-1.19252 -2.12413,-1.68802 -3.36954,-1.10014 -2.90173,1.35209 -4.73506,-2.04914 -2.14941,-3.9891 1.29595,-0.97418 1.49826,-0.57947 0.60056,1.18413 -0.87874,1.73001 -0.6954,2.1583 0.53736,1.22612 1.39713,-1.04976 1.37185,-2.41864 -0.10109,-5.2824 -1.37185,-2.67898 -2.35173,-3.14928 -3.1799,-1.52005 -0.65748,1.29331 -0.82183,3.0737 -0.37299,3.9639 0.44885,0.88179 -0.15805,1.63762 -1.35919,1.66282 -1.19484,0.0336 0.42987,2.679 3.61609,5.89546 3.18622,3.20808 6.26496,5.48396 6.84024,5.04725 0.58162,-0.4367 2.46552,1.15894 4.18507,3.55239 3.07242,4.25784 3.07242,4.30824 -0.10109,2.89735 -3.05978,-1.36889 -3.07875,-1.24292 -0.41725,2.34307 4.52013,6.07183 3.26207,7.14678 -2.58563,2.2087 l -5.39887,-4.56017 3.23678,4.51817 c 3.1799,4.44259 4.8868,10.39684 2.9776,10.39684 -0.53102,0 -2.45921,-1.59563 -4.28621,-3.5356 -2.62989,-2.80495 -2.48449,-2.10791 0.6954,3.29206 4.05232,6.87803 23.94718,26.52957 26.86156,26.52957 0.8661,0 3.50863,1.85598 5.88564,4.12347 3.80575,3.64477 4.48219,3.76234 5.76554,0.97417 1.7954,-3.91349 3.88793,-2.44383 8.14886,5.7359 l 3.30634,6.34897 -1.09368,-8.59125 c -0.6069,-4.72813 -0.64484,-8.59126 -0.0949,-8.59126 1.34024,0 7.60519,12.60553 7.53565,15.16697 -0.0317,1.10855 -1.16322,-0.25196 -2.52241,-3.03172 l -2.47185,-5.05565 0.45517,5.05565 c 0.25919,2.89733 1.51093,5.04726 2.93966,5.04726 1.92185,0 2.3707,-2.02395 1.94713,-8.80961 -0.38564,-6.24817 0.007,-8.38968 1.35919,-7.37351 1.04944,0.78942 1.49196,2.75455 0.97991,4.37539 -0.51208,1.61244 0.22126,6.28178 1.62471,10.37165 2.01035,5.85347 2.88276,6.80246 4.09024,4.44259 0.84081,-1.65443 1.13161,-6.64288 0.63849,-11.09389 -0.84079,-7.59187 -0.73332,-7.84381 1.71322,-4.15704 1.43507,2.15831 2.5983,4.88769 2.58566,6.06342 -0.0189,1.17573 -0.83449,0.77263 -1.82069,-0.8902 -1.49195,-2.51943 -1.62474,-2.40185 -0.79657,0.68864 0.54368,2.04914 1.44138,5.92067 1.9977,8.59965 0.55002,2.6706 1.69427,4.8625 2.5414,4.8625 0.88505,0 0.80919,-1.66282 -0.17701,-3.91352 z m -9.82417,-7.4575 c -1.10001,-2.93094 -1.61207,-5.78628 -1.15059,-6.35736 0.46782,-0.56267 1.63737,1.49487 2.60461,4.58537 2.28218,7.29793 1.13794,8.68362 -1.45402,1.77199 z m -63.57889,-64.95926 c -2.06724,-3.20806 -2.01034,-3.27525 0.62588,-0.76422 1.59943,1.52846 2.90804,3.12409 2.90804,3.544 0,1.66282 -1.36553,0.58786 -3.53392,-2.77978 z m 1.87128,-11.62295 c -1.13795,-1.67122 -1.45404,-3.03171 -0.70174,-3.03171 0.7523,0 0.46783,-1.09175 -0.62585,-2.42705 -1.10001,-1.33531 -1.97242,-3.38443 -1.94082,-4.55178 0.0506,-2.20028 3.97012,3.30046 6.77703,9.50665 1.9661,4.35862 -0.61954,4.72814 -3.50862,0.50389 z m 76.65879,80.52092 c -1.4477,-3.03171 -1.77012,-3.11571 -1.81437,-0.48709 -0.0507,3.40963 1.69426,6.47493 2.87643,5.03885 0.38565,-0.47029 -0.0885,-2.51942 -1.06206,-4.55176 z m -59.59612,-4.81211 c 2.40864,-7.08798 2.37702,-7.24756 -2.32012,-10.52281 -4.72242,-3.30046 -4.78564,-3.27526 -7.46611,3.03171 -2.6615,6.25658 -2.62989,6.44134 2.01036,10.94272 2.59195,2.51102 4.84886,4.3838 5.01955,4.15705 0.16436,-0.23515 1.40977,-3.65316 2.75632,-7.60867 z m 65.74095,3.14088 c -1.0431,-2.78817 -2.12413,-4.7953 -2.39597,-4.46777 -1.0115,1.23452 1.47931,9.53182 2.85747,9.53182 0.79023,0 0.58162,-2.28428 -0.4615,-5.06405 z m -92.13468,-3.9639 c 2.53506,-4.71133 2.49081,-5.11443 -0.77759,-7.23915 -2.7753,-1.81398 -4.12185,-1.53685 -6.78335,1.39409 -3.30633,3.64476 -3.30633,3.66157 0.32242,7.23916 4.52011,4.45098 4.03966,4.54335 7.23852,-1.3941 z m 52.47138,-3.28365 c -1.01781,-2.31787 -2.26323,-3.72035 -2.75631,-3.11569 -1.37185,1.66282 0.82184,7.33993 2.8385,7.33993 1.22643,0 1.20114,-1.2933 -0.0821,-4.22424 z m 176.74006,0.17637 c 0.5753,-2.6706 0.0507,-4.04789 -1.53621,-4.04789 -1.32125,0 -5.46839,-1.89796 -9.21093,-4.22424 -5.48106,-3.40122 -7.07417,-3.69516 -8.17416,-1.52845 -1.11264,2.19189 -1.76379,2.2087 -3.50231,0.0923 -1.70058,-2.06592 -1.71322,-2.90573 -0.0506,-4.15704 1.53619,-1.15054 1.01782,-2.77978 -1.9661,-6.19781 -3.97012,-4.53496 -7.64943,-4.30821 -7.59887,0.4703 0.019,1.61243 0.49943,1.49487 1.45403,-0.33593 1.10001,-2.11631 1.71954,-2.1751 2.68048,-0.27713 0.68908,1.35209 0.4425,3.07371 -0.55002,3.82114 -2.3138,1.7384 7.42185,11.28703 16.78452,16.45185 8.92013,4.92969 10.59543,4.92128 11.67015,-0.0673 z m -12.5299,-3.41803 c -1.59944,-0.50389 -2.91439,-1.76361 -2.91439,-2.79656 0,-2.64539 1.97243,-2.22552 5.72128,1.22612 3.23047,2.97292 2.63621,3.30046 -2.80689,1.57044 z m -98.35541,-3.83793 c -1.31494,-4.35022 -2.44024,-6.37416 -2.50346,-4.50137 -0.14541,4.28302 3.02818,14.67146 4.09025,13.37815 0.43621,-0.52908 -0.27817,-4.52656 -1.58679,-8.87678 z m -104.18414,1.87277 c 1.66264,-4.44259 1.57414,-5.92065 -0.51841,-8.45686 -2.2632,-2.75458 -2.88275,-2.6874 -5.89828,0.63825 -4.14082,4.56016 -4.24828,6.90323 -0.46781,10.38843 4.04597,3.73716 4.59598,3.5356 6.8845,-2.56982 z m 109.31116,-1.19252 c -0.46148,-1.3857 -0.83447,-0.25195 -0.83447,2.52782 0,2.77978 0.37299,3.92192 0.83447,2.52782 0.46149,-1.38567 0.46149,-3.66157 0,-5.05564 z m 3.66035,-6.06342 c -2.2063,-12.31162 -3.2684,-14.10041 -2.21898,-3.72876 0.84715,8.32251 1.88393,12.32 3.19887,12.32 0.30345,0 -0.13275,-3.86312 -0.97989,-8.59124 z m 101.64909,2.55302 c -1.30229,-0.98258 -3.10403,-1.22613 -4.00172,-0.55429 -0.89139,0.67186 -0.18335,1.86438 1.58678,2.6454 3.97013,1.75521 5.62643,0.32753 2.41494,-2.09111 z M 210.7485,634.55057 c 2.84482,-4.75333 2.80057,-4.95487 -1.83968,-8.96916 l -4.74139,-4.11507 -3.97642,5.16482 -3.97646,5.15644 3.91956,3.87152 c 5.08908,5.02206 7.07413,4.8121 10.61439,-1.10855 z m 117.0744,0.55427 c -0.53104,-1.61242 -0.92298,-1.13374 -1.00517,1.22612 -0.0697,2.13312 0.3224,3.32565 0.87242,2.65381 0.5563,-0.67186 0.61321,-2.41865 0.13275,-3.87993 z m 99.97378,1.10016 c -0.30344,-0.8986 -1.47931,-1.8056 -2.61723,-2.00715 -1.13795,-0.20156 -5.25348,-3.35924 -9.14141,-7.01242 -6.70749,-6.29015 -6.85922,-6.34055 -2.9207,-0.92378 6.43565,8.85999 16.65176,15.78 14.67934,9.94335 z m -91.66055,-5.13963 c -0.53103,-1.61244 -0.9293,-1.13375 -1.00517,1.21771 -0.0758,2.13311 0.31609,3.32564 0.87242,2.65381 0.55001,-0.67186 0.60688,-2.41027 0.13275,-3.87152 z m 4.98163,0 c -0.53104,-1.61244 -0.92299,-1.13375 -1.00517,1.21771 -0.0697,2.13311 0.32241,3.32564 0.87873,2.65381 0.54999,-0.67186 0.6069,-2.41027 0.12644,-3.87152 z m -14.45808,-3.27527 c -0.019,-2.94773 -0.24657,-3.00652 -1.63737,-0.3863 -2.09885,3.95549 -2.09885,6.63449 0,5.04724 0.91667,-0.68025 1.65633,-2.78817 1.63737,-4.66094 z m 94.8278,-4.51817 c -3.16093,-3.29206 -6.45462,-5.97944 -7.30806,-5.97944 -1.52356,0 10.59543,11.79932 12.23278,11.90849 0.45518,0.0336 -1.75747,-2.63699 -4.92472,-5.92905 z m 16.56326,5.45876 c 0,-0.38632 -3.93219,-4.55177 -8.73048,-9.25469 l -8.72417,-8.55767 8.26267,9.2463 c 7.97186,8.92718 9.19198,10.06093 9.19198,8.56606 z m -98.62724,-7.90261 c -0.4615,-1.38568 -0.84081,-0.25194 -0.84081,2.52784 0,2.77976 0.37931,3.9135 0.84081,2.52782 0.46151,-1.39409 0.46151,-3.66157 0,-5.05566 z m -1.16322,-9.33028 c -0.12011,-2.6286 -4.80461,8.94397 -4.79828,11.85812 0,1.67122 1.09367,-0.0253 2.43391,-3.77075 1.3339,-3.74555 2.40229,-7.38192 2.36437,-8.08737 z m -8.77473,7.43231 c -0.53105,-1.61243 -0.92299,-1.13374 -1.00517,1.22613 -0.0697,2.13311 0.32241,3.32564 0.87241,2.65379 0.55631,-0.67184 0.6132,-2.41864 0.13276,-3.87992 z m 110.22152,3.77075 c 0,-0.36952 -2.05462,-2.87215 -4.57071,-5.56794 l -4.57069,-4.89609 4.03333,5.55954 c 3.76783,5.19842 5.10807,6.48333 5.10807,4.90449 z m -30.73055,-30.25832 c 1.62473,-3.34245 2.09887,-5.43358 1.05576,-4.65255 -1.04942,0.78941 -1.90287,0.52068 -1.90287,-0.58787 0,-1.11695 0.74597,-2.58661 1.66264,-3.27526 0.91667,-0.68865 1.66265,-2.2171 1.66265,-3.40123 0,-1.26812 -1.13161,-1.00777 -2.76265,0.62986 -2.52873,2.52783 -2.58563,2.32627 -0.70173,-2.28427 1.40344,-3.44322 0.18966,-2.47744 -3.82473,3.03171 -3.23678,4.45099 -5.88564,9.00274 -5.88564,10.11129 0,1.11696 1.83334,-0.70543 4.08393,-4.03948 6.1891,-9.18751 4.90575,-4.07308 -1.56151,6.23139 -3.11667,4.96327 -5.96783,7.91101 -6.34082,6.55051 -0.42356,-1.52845 -1.07472,-1.70481 -1.7069,-0.45349 -0.56265,1.10855 -0.31608,3.33404 0.55633,4.95487 1.30229,2.41026 2.1747,1.97355 4.92472,-2.46905 6.96668,-11.27863 9.99486,-14.39432 4.5707,-4.71132 -3.11035,5.56794 -6.22703,11.48019 -6.93506,13.14301 -2.13048,5.04726 9.93162,-12.22762 13.10518,-18.77812 z m -50.70758,14.62107 c 0,-1.04976 -0.7523,-1.90637 -1.66265,-1.90637 -0.91666,0 -1.66264,1.41928 -1.66264,3.14929 0,1.7384 0.74598,2.595 1.66264,1.90636 0.91035,-0.68864 1.66265,-2.10792 1.66265,-3.14928 z m -4.773,-8.66683 c -1.0178,-1.48647 -1.29598,-3.50201 -0.61321,-4.47619 0.67643,-0.97418 -0.15173,-0.47869 -1.83966,1.10016 -2.98392,2.78815 -2.98392,2.91413 0,4.3418 4.38735,2.09953 4.50747,2.04915 2.45287,-0.96577 z m 46.15587,-13.55453 8.22473,-14.25996 -3.42014,-10.01051 c -1.87758,-5.50077 -3.8816,-10.01054 -4.44426,-10.00215 -0.56264,0 -4.28621,7.35673 -8.27531,16.3427 l -7.25116,16.34268 2.93334,7.91941 c 1.61208,4.35861 3.17356,7.9194 3.47071,7.9194 0.29079,0 4.23563,-6.41614 8.76209,-14.25157 z m -4.67818,-0.94059 c 1.9977,-4.46778 5.56955,-9.89295 7.92761,-12.05965 l 4.29252,-3.93871 -3.60344,5.98785 c -1.97875,3.30044 -5.55059,8.72561 -7.92761,12.05965 l -4.33048,6.06342 z m 3.18622,10.90914 c 0,-1.11696 -0.75231,-1.46128 -1.66266,-0.77264 -0.91666,0.68865 -1.66265,2.15832 -1.66265,3.26686 0,1.11695 0.74599,1.46127 1.66265,0.77263 0.91035,-0.68024 1.66266,-2.15831 1.66266,-3.26685 z m -186.15964,1.56204 c 0,-0.38632 -1.68161,-2.43546 -3.73621,-4.55177 l -3.74254,-3.84633 3.16726,4.54338 c 2.97759,4.27463 4.31149,5.47555 4.31149,3.85472 z m 133.60605,-2.44385 c 0.56898,-1.79719 0.28449,-2.61181 -0.65746,-1.89797 -0.90403,0.68025 -1.63736,2.09113 -1.63736,3.13249 0,2.91414 1.1885,2.26748 2.29482,-1.23452 z m -1.94079,-16.84657 c -0.73335,-2.30948 -1.25173,-2.22549 -2.8638,0.46188 -1.08736,1.80561 -2.62359,2.62022 -3.42014,1.80561 -0.79655,-0.82303 -0.4678,0.0672 0.72071,1.96514 2.2885,3.63637 1.09369,8.56606 -1.58679,6.55051 -0.8661,-0.65504 -1.0684,-2.1751 -0.45517,-3.37602 0.65747,-1.30172 0.34137,-1.62083 -0.77127,-0.78102 -1.39714,1.04976 -1.37817,2.40185 0.0695,5.232 1.83966,3.5776 2.18103,3.41803 5.57588,-2.6118 1.99138,-3.53561 3.21782,-7.69265 2.73103,-9.2463 z m -12.83337,5.91226 c 0.4046,-2.56982 1.88392,-6.21459 3.28103,-8.09577 2.92703,-3.9303 3.25576,-6.13901 0.92933,-6.13901 -2.10518,0 -6.91611,11.35423 -7.48509,17.64439 -0.54366,6.04663 2.23162,3.15769 3.27473,-3.40961 z m 29.30811,4.46779 c 2.06724,-3.20808 2.01036,-3.27527 -0.62588,-0.76423 -1.59941,1.52844 -2.90804,3.12408 -2.90804,3.54399 0,1.66282 1.36553,0.58786 3.53392,-2.77976 z m -32.53859,-8.79281 c 2.36437,-5.66871 4.05863,-10.57321 3.76784,-10.88393 -0.29081,-0.31913 -6.51151,-3.46842 -13.82589,-6.99561 -7.30808,-3.5356 -18.83281,-10.04412 -25.60352,-14.47832 -6.97933,-4.56856 -12.94082,-7.28955 -13.75635,-6.29857 -0.79655,0.97419 -1.89022,6.27337 -2.42759,11.79933 l -0.97356,10.02732 18.05521,10.38004 c 14.57187,8.3729 27.43686,15.46929 30.07938,16.59463 0.21494,0.0925 2.32013,-4.47618 4.68448,-10.14489 z m -1.74482,-5.86188 c 1.65632,-2.22549 3.38218,-4.04788 3.83736,-4.04788 0.4615,0 -0.51839,1.82239 -2.17471,4.04788 -1.65634,2.2255 -3.38219,4.03949 -3.83736,4.03949 -0.46151,0 0.51839,-1.81399 2.17471,-4.03949 z m 63.09843,-4.55175 c 2.49081,-5.2824 4.15345,-9.60744 3.68564,-9.60744 -1.01782,0 -11.10119,19.68514 -11.10119,21.66709 0,2.33467 2.66151,-1.99874 7.41555,-12.05965 z m -14.54659,2.51101 c 1.87126,-4.50137 2.11781,-4.60215 2.3138,-0.99097 0.12011,2.21709 0.0822,4.95488 -0.0949,6.06342 -0.17067,1.10855 0.58162,0.94899 1.6753,-0.35271 1.49828,-1.7888 1.52989,-3.9555 0.13275,-8.8348 -1.01782,-3.55238 -1.49828,-8.85159 -1.07471,-11.77412 0.42989,-2.93093 -0.27184,-1.68802 -1.54885,2.76298 l -2.33277,8.08735 -0.12643,-9.72499 c -0.0758,-5.99624 0.51207,-9.2463 1.53621,-8.47367 1.02413,0.77263 1.66264,-2.71259 1.66264,-9.09513 0,-5.90386 0.66379,-9.85097 1.54886,-9.18752 0.85345,0.64665 1.15057,4.19064 0.65748,7.8858 -1.24541,9.3387 2.50976,30.73703 4.88679,27.84807 1.29597,-1.57043 1.26436,-5.03883 -0.11377,-12.3032 -1.14424,-6.01303 -1.34655,-11.96728 -0.51206,-14.70506 1.16954,-3.82952 1.61207,-2.78817 2.62988,6.2062 0.85977,7.56667 1.75116,10.17009 2.9776,8.67522 1.22645,-1.48645 0.82816,-6.23978 -1.32759,-15.85559 -2.61093,-11.66496 -3.25576,-12.96666 -4.25461,-8.67523 -1.06838,4.59376 -1.1885,4.43419 -1.34022,-1.7636 -0.14541,-5.84508 0.18965,-6.45814 2.32642,-4.29982 1.37186,1.37728 2.56669,3.99749 2.65519,5.80308 0.0948,1.81399 0.70805,1.01617 1.37184,-1.76361 0.97358,-4.08147 1.44771,-2.77976 2.47185,6.80246 0.91034,8.49048 1.77644,11.23665 3.05977,9.67459 1.28967,-1.57043 1.15691,-5.50073 -0.45517,-13.88202 -2.80058,-14.54551 -3.55289,-30.905 -1.40977,-30.905 0.88505,0 2.6615,2.95613 3.95748,6.57571 l 2.34541,6.5673 0.0885,-9.09513 c 0.0569,-5.77788 0.60689,-8.11255 1.49828,-6.39934 0.90403,1.73 1.83334,-1.90637 2.59829,-10.1113 1.12528,-12.04288 1.34653,-12.56355 3.74884,-8.76762 2.46553,3.90513 2.52244,3.84634 1.75748,-1.51166 -0.42988,-3.0569 -0.1454,-5.55953 0.64483,-5.55953 0.78391,0 1.44138,-2.04914 1.45402,-4.55177 0.019,-3.67836 0.33507,-3.97228 1.63737,-1.52006 1.57414,2.96453 2.28219,-1.03295 2.24425,-12.63072 -0.0127,-1.94836 0.6069,-3.544 1.36553,-3.544 0.75862,0 1.38448,-1.58723 1.40344,-3.53559 0.019,-2.97292 0.27185,-3.06532 1.56783,-0.56268 1.70689,3.27527 1.42242,3.83793 4.58967,-9.04475 1.78276,-7.23915 1.65001,-28.38555 -0.22127,-35.12922 -1.01783,-3.65317 -0.82816,-4.4258 0.79022,-3.20806 1.53623,1.15052 1.80806,0.60466 0.98622,-1.99035 -0.8408,-2.67901 -0.48679,-3.29206 1.40345,-2.41026 2.01667,0.94059 2.33276,0.0503 1.54885,-4.32502 -0.70804,-3.92191 -0.51837,-4.69454 0.63851,-2.68739 1.09368,1.89798 1.47299,-4.3922 1.15059,-19.18125 l -0.47415,-22.003 -6.94771,-7.4995 c -9.10348,-9.82575 -47.67311,-33.14727 -62.17543,-37.58986 l -11.41096,-3.49361 -22.16441,27.82288 c -22.78396,28.59552 -45.87137,64.00188 -58.78692,90.16194 -4.03335,8.17134 -8.22474,15.26773 -9.30577,15.77161 -3.07874,1.43608 -22.93569,53.21872 -22.93569,59.80281 0,6.2818 9.2805,19.60117 14.28108,20.49136 1.46667,0.26874 7.13737,4.75332 12.61209,9.98534 5.46841,5.23201 10.36784,9.50664 10.87991,9.50664 0.51841,0 5.22186,3.32564 10.45002,7.39872 12.48567,9.71659 34.66272,22.23814 42.4955,24.00175 3.42646,0.77262 6.23336,2.2591 6.23336,3.31725 0,1.04976 0.69539,1.39408 1.54885,0.75582 0.84712,-0.64666 2.01667,-0.24354 2.59197,0.89021 0.57527,1.12533 2.50345,2.04913 4.29253,2.04913 1.78277,0 4.5454,0.92379 6.1322,2.04913 3.8184,2.70417 20.50808,7.95299 23.62476,7.43231 1.34656,-0.22675 3.38851,-2.67898 4.54542,-5.45037 z M 330.26946,546.2782 c -3.86266,-3.19966 -8.34485,-5.82826 -9.96326,-5.82826 -4.90574,0 -19.1868,-9.63261 -24.68051,-16.64503 -11.59427,-14.80584 -14.39485,-28.24279 -9.77358,-46.92014 6.80863,-27.53735 28.45466,-44.29155 48.41277,-37.49749 10.04541,3.42642 22.08223,16.85497 28.76442,32.1143 4.60231,10.49763 5.39886,14.53711 5.82242,29.37653 0.46782,16.69542 -0.22757,21.36476 -3.29368,22.0534 -0.8092,0.18476 -1.26438,1.10855 -1.00517,2.05753 0.25919,0.94059 -2.1684,4.75333 -5.39887,8.45688 -3.23046,3.70357 -5.87299,7.75984 -5.87299,9.01116 0,1.25132 -0.746,1.71321 -1.66265,1.03296 -0.91667,-0.68865 -1.66265,-0.23515 -1.66265,1.00778 0,1.24291 -0.74598,1.6964 -1.66265,1.00776 -0.91034,-0.68024 -1.66264,-0.36951 -1.66264,0.69706 0,1.06654 -2.09886,2.83854 -4.66553,3.92189 -3.95116,1.67962 -5.7529,1.08337 -11.69543,-3.84633 z m 13.96497,-5.2488 c -0.45518,-1.42767 0.0252,-2.595 1.06207,-2.595 1.0431,0 1.54886,-0.4199 1.12528,-0.9322 -0.42355,-0.51228 -2.41495,-0.40311 -4.43161,0.23515 -4.60231,1.46127 -4.82358,5.89546 -0.30345,5.89546 2.06093,0 3.04713,-1.00777 2.54771,-2.60341 z m -0.92299,-8.53246 c 5.36093,-4.56856 15.22934,-20.19741 14.12302,-22.37252 -0.46782,-0.92379 0.0252,-2.03234 1.09369,-2.46905 2.54137,-1.02456 3.2431,-18.56818 1.15689,-28.87264 -4.03334,-19.89508 -20.04027,-37.45549 -34.05583,-37.36311 -24.74374,0.17636 -45.56791,37.06079 -36.25582,64.22022 8.52818,24.87515 38.65813,39.88255 53.93805,26.8571 z m -24.10523,-4.17385 c 0.56896,-1.11695 0.0317,-2.02395 -1.18219,-2.02395 -3.28736,0 -14.34428,-11.69853 -16.89831,-17.87113 -5.31668,-12.89109 -3.62243,-31.52645 3.85634,-42.3264 6.54311,-9.43945 24.3075,-13.72248 32.87995,-7.9278 4.38737,2.96454 11.12014,13.54613 15.42533,24.24529 2.81321,6.97883 2.88276,8.54088 0.76493,17.22449 -2.87011,11.73214 -12.15059,23.27952 -22.17074,27.57935 -8.3006,3.56078 -14.18623,4.07308 -12.67531,1.10015 z m -6.58105,-14.01642 c -0.60057,-1.19253 -1.89023,-2.15831 -2.85748,-2.15831 -1.10633,0 -0.9799,1.15893 0.33506,3.08211 2.27587,3.34243 4.3115,2.59499 2.52242,-0.9238 z m -4.223,-11.04349 c 0,-0.43671 -1.11895,-1.3185 -2.4908,-1.95677 -1.37185,-0.63825 -2.49081,-0.28552 -2.49081,0.78943 0,1.08335 1.11896,1.96516 2.49081,1.96516 1.37185,0 2.4908,-0.36112 2.4908,-0.79782 z m 4.98795,-6.73528 c -1.37185,-0.62145 -4.28622,-1.94835 -6.4799,-2.93092 -3.85002,-1.73841 -3.8753,-1.89797 -0.82818,-4.70294 3.04083,-2.80497 3.04083,-2.90574 0.0697,-2.97293 -2.09887,-0.042 -2.76899,-1.06656 -2.09887,-3.19967 0.54368,-1.7216 0.34138,-2.64539 -0.45516,-2.04913 -0.79656,0.59627 -1.8207,3.46 -2.27587,6.36575 -0.69541,4.42581 0.019,5.7359 4.37472,8.04537 2.85749,1.51167 6.32185,2.71259 7.6937,2.6706 2.21896,-0.0756 2.21896,-0.20995 0,-1.22613 z m 37.14087,38.7824 c -0.54366,-1.71321 -1.34021,-2.68739 -1.77643,-2.15831 -0.4362,0.53748 -0.29712,1.93996 0.30346,3.1241 1.63737,3.22485 2.59828,2.595 1.47297,-0.96579 z m 29.4725,1.93996 c 0.0821,-2.35147 0.47413,-2.83016 1.00517,-1.21773 0.48046,1.46127 0.42356,3.19968 -0.13276,3.87153 -0.54999,0.67184 -0.94196,-0.52069 -0.87241,-2.6538 z m 6.51784,-21.6167 c 0,-2.89734 0.77757,-5.85346 1.73218,-6.56731 1.13161,-0.85659 1.34023,0.67185 0.59424,4.42581 -1.52989,7.75143 -2.32642,8.48207 -2.32642,2.1415 z m -8.0414,-65.5639 c -1.05577,-2.39346 -1.49197,-6.01304 -0.96725,-8.04538 0.91667,-3.54399 0.87873,-3.54399 -0.97357,-0.0167 -1.06208,2.00714 -1.51726,4.97167 -1.0115,6.56731 0.50576,1.60402 0.19599,2.91412 -0.68909,2.91412 -0.88505,0 -1.61206,-0.94057 -1.61206,-2.09951 0,-1.42766 -0.99886,-1.43608 -3.1546,-0.0336 -2.56035,1.66284 -3.66668,1.09177 -5.88564,-3.0233 -1.50461,-2.78817 -2.26957,-6.181 -1.70691,-7.5415 0.56265,-1.36048 -0.0697,-0.8482 -1.39714,1.12535 -2.16206,3.21647 -2.52874,3.25007 -3.43908,0.37791 -0.55631,-1.772 -1.65633,-2.73777 -2.44023,-2.1415 -0.79024,0.58787 -3.83736,-3.45162 -6.78335,-8.96916 -2.93967,-5.52596 -5.90462,-10.05254 -6.58737,-10.05254 -0.67643,0 -2.85748,-3.5104 -4.84254,-7.81021 -12.89659,-27.90687 6.78966,-66.99998 33.74604,-66.99998 20.70407,0 36.36332,21.27236 38.40528,52.17734 0.31609,4.79532 0.96091,9.47305 1.43505,10.40524 0.47415,0.94059 -0.22127,4.23264 -1.53621,7.32314 -1.32128,3.09889 -1.95344,6.51691 -1.39713,7.60027 0.60057,1.18412 0.1201,1.3185 -1.20115,0.31914 -1.59943,-1.20094 -1.90919,-0.73064 -1.13792,1.7132 0.58158,1.84758 0.36033,3.35924 -0.49944,3.35924 -0.85345,0 -1.08103,1.52005 -0.4931,3.36763 0.71435,2.26748 0.42356,2.88895 -0.88508,1.90636 -1.06837,-0.80621 -1.94712,-0.4451 -1.94712,0.79784 0,1.2429 -0.82816,1.63761 -1.83964,0.87339 -1.23278,-0.93219 -1.47301,0.0253 -0.71438,2.91413 0.66379,2.55302 0.39827,4.29983 -0.65748,4.29983 -0.97356,0 -1.7954,-1.14215 -1.83333,-2.52782 -0.0317,-1.39409 -1.1253,-0.25195 -2.43391,2.52782 -1.30231,2.77977 -2.42127,4.14026 -2.48449,3.03171 -0.0569,-1.10854 -0.83449,-0.51229 -1.71956,1.3353 -0.88506,1.84759 -2.9207,3.1157 -4.52012,2.82176 -1.59942,-0.30233 -3.35058,0.8986 -3.89426,2.66221 -0.82185,2.67898 -1.3023,2.48582 -2.90172,-1.15895 z m 8.78103,-21.57471 c 8.57246,-6.83604 13.06096,-18.29104 13.79429,-35.2468 0.64484,-14.74704 0.39197,-16.14953 -4.84886,-26.68913 -6.46726,-13.00026 -13.57301,-18.19028 -24.95235,-18.19028 -10.36153,-0.008 -14.85004,2.31788 -23.75119,12.30321 -11.00636,12.3368 -13.8259,29.04901 -7.68108,45.50927 3.48336,9.33028 13.6236,20.60052 22.00007,24.44686 7.16265,3.29204 19.97705,2.21708 25.43912,-2.13313 z m -29.12476,-7.89421 c -8.86956,-7.27274 -13.55406,-17.1657 -12.66269,-26.73952 2.13049,-22.9184 10.63337,-32.5678 27.23457,-30.88818 6.94139,0.69703 10.00116,2.1751 13.8891,6.71006 10.0391,11.69855 10.24773,29.29255 0.51207,43.36776 -8.73047,12.63073 -19.38914,15.41049 -28.97305,7.54988 z M 141.20177,555.21379 c 4.19645,-18.38344 7.05836,-20.10504 11.12458,-6.71848 l 2.74999,9.06154 1.22328,-20.79368 c 0.67265,-11.4382 0.79784,-21.31436 0.27817,-21.94422 -2.31632,-2.82176 -5.83569,1.74682 -6.82191,8.85159 -0.59301,4.27464 -1.70627,9.00276 -2.47311,10.51441 -2.04766,4.03109 -5.08277,0.79783 -5.14346,-5.47555 l -0.0524,-5.44197 -3.41002,5.55954 c -4.46638,7.28114 -6.45714,7.02921 -6.45714,-0.81462 0,-5.90385 -0.21746,-6.1558 -2.90869,-3.30044 -1.60005,1.69641 -3.84368,2.67058 -4.98604,2.1667 -4.05484,-1.78879 -1.98569,-8.56605 4.57069,-14.97379 11.68659,-11.42981 7.0122,-13.73929 -7.03938,-3.47681 -9.11486,6.65128 -19.55411,17.48481 -19.55411,20.28979 -2e-4,2.41865 7.36368,1.96514 9.45242,-0.57107 0.99374,-1.20933 2.18105,-1.43607 2.63811,-0.50389 0.45708,0.93218 -2.56073,8.75922 -6.70621,17.40086 -8.457385,17.6276 -8.50795,23.20391 -0.0772,8.54086 9.82859,-17.09013 9.36141,-16.55265 11.35154,-13.13462 0.9805,1.68801 1.51598,9.25468 1.20683,17.05652 l -0.55695,14.01642 2.92575,-7.953 c 1.60954,-4.37539 4.06621,-11.36261 5.46018,-15.53646 4.48283,-13.41176 7.48381,-8.03698 7.52426,13.48733 0.0127,6.5757 0.48553,11.39622 1.05133,10.70756 0.56581,-0.68864 2.64887,-8.34769 4.62951,-17.01452 z m 133.47964,-7.18037 c 1.45402,-8.4149 1.38447,-11.18627 -0.35403,-13.39497 -1.83966,-2.33467 -2.6299,-1.7384 -4.95635,3.72876 -3.42012,8.05377 -2.15575,10.41363 1.72587,3.20806 1.56782,-2.90573 3.21782,-4.85409 3.66036,-4.30821 0.44253,0.53748 -1.54885,4.60215 -4.43163,9.02795 -4.82989,7.41552 -5.0069,8.20493 -2.27586,10.13651 4.50116,3.19126 4.65921,2.98131 6.63164,-8.3981 z m -9.67877,1.37728 c 0.65748,0.49549 1.02413,-1.99875 0.82184,-5.54274 -0.20861,-3.54399 0.73966,-7.95299 2.09885,-9.78377 1.68161,-2.27589 1.89657,-3.77076 0.67011,-4.69455 -1.02413,-0.76422 -2.68678,1.13374 -3.84999,4.37541 -1.83967,5.14804 -3.54657,6.22299 -7.44716,4.67774 -0.68908,-0.26874 -1.80804,-0.37791 -2.49712,-0.25195 -2.05459,0.39472 -1.43506,-1.83918 2.26321,-8.15454 3.30633,-5.65192 3.21151,-10.70757 -0.12642,-6.6345 -2.42761,2.96454 -7.08048,17.57721 -5.12704,16.10754 0.96093,-0.72223 1.75749,-0.12597 1.77013,1.32691 0.0189,2.11631 0.31609,2.09112 1.45403,-0.0923 1.89655,-3.63639 3.82471,0.17635 2.56666,5.08924 -0.56263,2.2087 0.0127,1.75521 1.42242,-1.10014 1.60576,-3.27528 2.76265,-4.05629 3.57818,-2.44386 0.67012,1.31012 0.40459,3.56919 -0.57529,5.01366 -0.98621,1.44447 -1.25173,3.27526 -0.59425,4.08147 0.65746,0.79783 1.46033,0.47869 1.78908,-0.70543 0.32241,-1.19253 1.13161,-1.7552 1.78276,-1.26811 z m -0.89138,-23.07797 c -1.06208,-1.28489 -5.5822,6.02144 -5.53162,8.94398 0.019,1.18413 1.46668,-0.11758 3.2115,-2.88055 1.74483,-2.76296 2.78792,-5.49235 2.32012,-6.06343 z m -18.10578,6.17261 c 0.52469,-1.03297 0.3224,-2.35986 -0.45518,-2.93934 -0.77759,-0.58786 -1.4161,0.26035 -1.4161,1.88118 0,3.40963 0.52472,3.70355 1.87128,1.05816 z m 150.47274,-17.40085 c -3.52126,-12.85748 -5.79713,-17.44284 -4.23563,-8.51566 0.43621,2.50262 1.65632,9.94333 2.70574,16.54423 1.49829,9.39748 2.25059,11.23665 3.50231,8.51567 1.12528,-2.43544 0.53737,-7.35672 -1.97242,-16.54424 z M 253.49686,522.52 c 1.12529,-2.637 1.30862,-4.23264 0.39828,-3.55238 -0.91034,0.68024 -2.16207,-0.34432 -2.78161,-2.28429 -0.98621,-3.0905 -1.40978,-2.89734 -3.4391,1.52845 -3.36953,7.36513 -2.93333,9.26311 1.11265,4.8625 3.53391,-3.83792 3.54024,-3.82954 2.28851,1.20092 -1.44771,5.81149 -0.53736,5.14804 2.42127,-1.7552 z m -110.30369,-0.77262 c 1.11959,4.83731 3.97516,6.27337 4.0131,2.02394 0.0127,-1.38569 0.41157,-4.34182 0.88758,-6.56731 0.63978,-2.99812 -0.47413,-4.96328 -4.29127,-7.56667 -5.12955,-3.51042 -5.18834,-3.49361 -11.69101,2.86374 -3.5946,3.51041 -6.51149,7.82702 -6.48242,9.59062 0.0361,2.1835 1.13605,1.42768 3.4688,-2.37666 3.9069,-6.36576 6.45081,-5.62672 6.45081,1.87277 v 5.15644 l 3.29497,-4.77012 3.29558,-4.77012 z m 259.30978,-8.08736 c -0.55632,-4.71974 -0.27815,-9.95173 0.61954,-11.62297 1.27702,-2.37665 1.63737,-1.83077 1.65634,2.52783 0.0127,3.0569 0.85345,5.55954 1.86494,5.55954 1.0747,0 1.37184,-1.47807 0.71438,-3.53559 -0.61956,-1.94836 -1.57416,-6.27337 -2.13049,-9.60743 l -1.01149,-6.06343 -1.48564,6.06343 c -3.30633,13.47895 -4.1661,19.13926 -2.73103,18.0643 0.81552,-0.61306 1.47931,0.75584 1.47931,3.04851 0,2.29268 0.4615,4.16546 1.02414,4.16546 0.55632,0 0.56266,-3.87152 0,-8.59965 z m -159.03256,-3.5356 c 0,-1.75521 -1.00517,-0.90699 -2.38332,2.02394 -3.12299,6.64289 -3.1546,9.92655 -0.0507,4.92968 1.34024,-2.15831 2.44023,-5.2824 2.43391,-6.95362 z m 3.11669,2.98132 c -0.51208,-0.62146 -1.44138,0.49549 -2.06725,2.49424 -0.90401,2.88054 -0.70804,3.11569 0.92933,1.12534 1.13792,-1.36888 1.65,-2.99812 1.13792,-3.61958 z m -80.58467,-3.79594 c 0.90845,-2.88054 -0.12328,-5.2488 -2.28408,-5.2488 -0.65559,0 -1.58237,1.81399 -2.06094,4.03947 -0.99695,4.63575 2.91943,5.72751 4.34502,1.20933 z m 72.77717,-0.0588 c 2.47818,1.86439 0.93565,-3.62797 -2.24425,-8.00338 -3.28104,-4.50979 -3.76782,-4.24105 -5.19656,2.81336 -0.56264,2.77976 -0.59426,3.9135 -0.0697,2.52783 1.75748,-4.66096 5.97415,-2.93934 4.96266,2.01553 -0.51207,2.50263 -0.49943,3.40964 0.0316,2.01555 0.52471,-1.40249 1.65633,-2.01555 2.51611,-1.36889 z m -79.48467,-3.16608 c 1.28967,-6.00463 -1.3674,-6.71848 -3.52631,-0.94899 -1.49007,3.97231 -1.40977,4.98848 0.39384,4.98848 1.24477,0 2.65455,-1.82239 3.13247,-4.03949 z m -6.47609,-1.18413 c 1.39207,-4.409 1.26374,-8.92718 -0.2535,-8.92718 -2.02301,0 -5.59421,8.06218 -4.51318,10.18689 1.47804,2.91414 3.63127,2.34308 4.76668,-1.25971 z m -5.9691,-5.82828 c 2.36058,-6.29857 -0.5519,-9.16232 -3.88351,-3.81274 -2.65833,4.27464 -2.8872,5.55115 -1.3276,7.44912 1.96484,2.39344 3.30444,1.45287 5.21111,-3.63638 z m 262.19889,-4.22425 c -0.62587,-4.05628 -1.51092,-6.92842 -1.96609,-6.36575 -0.46151,0.55429 -0.32243,4.32502 0.30342,8.3897 0.62588,4.05628 1.51094,6.92004 1.97242,6.36576 0.45518,-0.55427 0.3161,-4.33342 -0.30975,-8.38971 z m -268.57765,-0.76425 c 2.20001,-5.00527 2.16652,-6.1978 -0.17384,-6.1978 -1.93385,0 -6.26749,5.84508 -6.36294,8.59126 -0.1106,3.17449 4.89375,1.33529 6.53678,-2.39346 z m 40.85879,1.73002 c 0.54367,-1.06657 1.64368,-1.43608 2.44655,-0.83142 0.80287,0.60466 2.28852,-0.97419 3.30001,-3.50201 1.75747,-4.41739 1.72586,-4.44259 -0.74598,-0.68023 -3.86898,5.87025 -3.14829,2.58661 2.30115,-10.45564 2.6868,-6.43293 5.60117,-15.55327 6.47359,-20.27299 1.42874,-7.75144 1.27701,-8.58287 -1.56781,-8.58287 -1.74484,0 -3.14197,-1.41086 -3.14197,-3.17446 0,-2.30948 1.01148,-2.82176 3.73622,-1.90637 2.05459,0.68865 -1.08737,-1.97355 -6.97935,-5.92905 -5.89828,-3.94711 -13.20002,-10.10291 -16.22819,-13.6721 l -5.50697,-6.49172 -3.71787,4.61054 -3.71789,4.61056 5.81738,5.98783 c 5.66374,5.81988 14.16158,11.48019 23.9162,15.9144 2.64253,1.20092 4.36208,2.71258 3.83103,3.36763 -1.84598,2.2339 -16.39889,-5.22362 -26.42092,-13.54612 -11.58669,-9.62422 -10.15796,-10.37166 -22.63603,11.82451 -4.81597,8.55766 -8.64828,13.63851 -9.14771,12.12684 -0.59805,-1.81399 -0.8996,-1.64601 -0.99064,0.55428 -0.19155,4.61056 7.5837,12.71472 18.98263,19.77751 6.4818,4.02268 8.80888,6.29857 6.64806,6.50013 -5.19024,0.47869 9.08009,5.37478 16.17319,5.54274 3.40749,0.0839 6.63796,-0.71384 7.17532,-1.77199 z m 1.06838,-50.54814 c 0.32875,-1.19252 1.30863,-2.1667 2.17473,-2.1667 0.87241,0 1.8523,0.97418 2.17471,2.1667 0.32874,1.20094 -0.65115,2.17512 -2.17471,2.17512 -1.52358,0 -2.49714,-0.97418 -2.17473,-2.17512 z m -7.7253,-3.74554 c -1.22644,-2.42705 1.89656,-4.82051 4.10921,-3.15769 1.85862,1.40248 0.63851,5.03885 -1.68795,5.03885 -0.80287,0 -1.89655,-0.8482 -2.42126,-1.88116 z m -6.71887,-6.2062 c -0.56518,-1.11695 0.18334,-2.02393 1.66202,-2.02393 1.47867,0 2.22467,0.90698 1.66201,2.02393 -0.56263,1.10856 -1.31495,2.01555 -1.66201,2.01555 -0.34897,0 -1.09683,-0.90699 -1.66202,-2.01555 z m -4.70914,-5.39157 c -1.91237,-2.33467 -1.21064,-4.71972 1.38511,-4.71972 1.37121,0 2.49333,1.36048 2.49333,3.03171 0,3.15768 -1.96609,4.01428 -3.87844,1.68801 z m -27.7542,54.41963 c 0.029,-1.38567 -0.60375,-2.52781 -1.40599,-2.52781 -2.70069,0 -5.57081,5.98785 -4.49926,9.38907 0.96346,3.04852 1.28713,3.00651 3.45742,-0.48709 1.31748,-2.11633 2.41874,-4.98007 2.44783,-6.37417 z m 277.09948,5.18164 c -0.53103,-1.61244 -0.9293,-1.13375 -1.00517,1.22613 -0.0758,2.12471 0.3161,3.32564 0.87241,2.65378 0.55,-0.67184 0.6069,-2.41863 0.13276,-3.87991 z m 5.44944,-17.82075 c 0.019,-1.66283 -1.07471,-0.41991 -2.44024,2.76297 -3.16092,7.37352 -3.17988,9.2463 -0.0443,4.19904 1.34025,-2.15831 2.45921,-5.29079 2.4845,-6.96201 z m -2.62989,-3.13249 c 0.56897,-1.8056 0.2908,-2.61181 -0.65115,-1.90638 -0.90403,0.68026 -1.64368,2.09114 -1.64368,3.1409 0,2.90573 1.18851,2.26748 2.29483,-1.23452 z M 245.02305,444.8208 c 4.91209,-10.90072 8.51553,-20.30658 8.01611,-20.91965 -2.15574,-2.6286 -11.43623,1.95677 -13.1305,6.48333 -0.99253,2.637 -2.55403,4.23265 -3.47701,3.5356 -0.92932,-0.69704 -1.16322,-0.25194 -0.53104,0.99937 0.63219,1.24293 -0.74597,6.81086 -3.06609,12.37879 -5.04485,12.11005 -5.46208,15.96478 -1.30231,12.05127 2.14945,-2.02394 2.04197,-1.51166 -0.41091,1.98194 l -3.31897,4.71973 4.14714,-0.71383 c 3.31896,-0.56267 5.92356,-4.65254 13.07358,-20.51655 z m -19.642,4.4426 c 2.81322,-6.78566 4.76036,-12.7819 4.31782,-13.31097 -0.44252,-0.53749 -2.50345,3.418 -4.57701,8.79279 -5.82243,15.04939 -6.423,16.85497 -5.61382,16.85497 0.41725,0 3.0598,-5.55113 5.87301,-12.33679 z m 6.423,-6.87803 c 0,-1.10855 -1.42874,1.16732 -3.17988,5.05564 -1.75749,3.89672 -3.18622,7.98659 -3.18622,9.10354 0,1.10855 1.42873,-1.16734 3.18622,-5.05567 1.75114,-3.89669 3.17988,-7.98658 3.17988,-9.10351 z m -81.06513,-7.58349 c 2.68743,-4.66094 2.93525,-5.73591 0.85346,-3.70356 -2.96243,2.89734 -6.85415,10.27927 -5.41783,10.27927 0.42673,0 2.4807,-2.95614 4.56437,-6.57571 z m 44.86494,5.15644 c -1.49828,-0.72224 -1.66264,-1.54526 -0.48046,-2.43546 1.10632,-0.8314 0.48046,-2.32627 -1.65,-3.94711 -1.88392,-1.43606 -2.93336,-1.62921 -2.32645,-0.43669 1.50461,2.95612 0.34139,2.73778 -6.4799,-1.21772 -4.89313,-2.83856 -5.50633,-3.87993 -3.79311,-6.44974 1.28333,-1.93156 1.34023,-2.56142 0.15805,-1.69642 -1.03679,0.75583 -3.85002,-0.51228 -6.25232,-2.80496 -2.40231,-2.30107 -5.29266,-3.77914 -6.42679,-3.28366 -1.13351,0.49549 0.71121,2.53623 4.10034,4.53497 3.38853,2.00715 5.79083,4.36702 5.34198,5.25722 -0.85978,1.69641 15.58336,13.95762 18.41556,13.72248 0.91035,-0.0839 0.6385,-0.63825 -0.6069,-1.24291 z m 236.26032,-30.8294 c -2.38335,-6.73528 -4.58968,-11.9337 -4.89945,-11.56419 -0.30977,0.37792 0.93564,5.98785 2.76897,12.47117 1.83334,6.48333 2.95863,12.24442 2.49713,12.7987 -0.46148,0.56266 -0.83448,-0.19317 -0.83448,-1.67962 0,-1.47807 -0.4362,-2.1667 -0.96724,-1.52006 -0.53103,0.64666 -0.0443,3.26686 1.08103,5.81988 l 2.04197,4.65255 1.32759,-4.36701 c 0.92298,-3.04011 0.007,-8.09575 -3.01552,-16.61142 z m -234.82525,9.06993 c 0,-0.52068 -1.68163,-1.93996 -3.73623,-3.14929 -3.59083,-2.11631 -3.61609,-2.08272 -0.51839,0.94059 3.39484,3.30886 4.25462,3.75394 4.25462,2.2087 z m 237.57523,-14.1004 c -4.95632,-14.55389 -6.03103,-13.24378 -1.34654,1.63764 1.97874,6.30696 3.95116,11.02668 4.38104,10.50601 0.42988,-0.52068 -0.93563,-5.98785 -3.0345,-12.14365 z m 1.56152,-7.96139 c -1.98506,-6.30696 -3.89427,-11.10227 -4.2483,-10.67398 -0.36034,0.43671 0.94829,5.97105 2.89542,12.31161 1.95345,6.34056 3.86265,11.14428 4.24829,10.67398 0.39195,-0.47031 -0.91667,-6.01304 -2.89541,-12.31161 z m 4.4,-4.86249 c -0.19597,-4.19905 -1.22012,-9.59903 -2.27587,-11.99248 -2.69312,-6.13061 -2.38964,-8.17975 0.52472,-3.50201 4.12184,6.63449 2.84484,-0.63826 -1.63104,-9.2547 -4.31782,-8.32251 -7.29541,-11.18625 -4.11552,-3.9639 0.98621,2.2423 1.27069,5.11444 0.63218,6.37416 -0.67012,1.32689 -0.42988,1.7384 0.57529,0.98257 1.02414,-0.76422 1.70691,0.56268 1.65,3.23327 -0.0506,2.49424 0.46782,6.34895 1.14426,8.57444 1.22011,3.9891 1.20116,3.9891 -1.39079,0.11758 -1.44771,-2.1583 -2.62991,-3.40962 -2.62991,-2.77976 0,1.67962 6.71381,19.85308 7.33335,19.85308 0.29713,0 0.37931,-3.4432 0.18333,-7.64225 z m 5.56322,-52.00939 c 0.15806,-8.70884 -0.6385,-11.36263 -5.74655,-19.20645 -3.26207,-5.00525 -9.79887,-13.02545 -14.52761,-17.81234 -9.69773,-9.83418 -34.5363,-25.26988 -46.35183,-28.81386 -7.54831,-2.2591 -8.07933,-2.12473 -14.12936,3.73715 -3.45805,3.35083 -8.1046,8.45688 -10.31726,11.34581 l -4.03334,5.25721 h 4.38736 c 6.71383,0 18.47879,5.36638 38.57597,17.6024 21.77245,13.2522 33.59432,23.8338 42.95066,38.44647 l 6.91612,10.79155 1.04942,-5.61831 c 0.5753,-3.09051 1.13161,-10.17009 1.22642,-15.72963 z m -10.38047,-0.0756 c -1.48563,-4.70293 0.15805,-7.004 4.99428,-7.004 3.37586,0 4.07126,0.8734 3.64137,4.55176 -0.65115,5.54273 -7.08681,7.37352 -8.63565,2.45224 z m 6.37243,-0.79781 c 1.22644,-2.41865 -1.90287,-4.81212 -4.11553,-3.14929 -1.85862,1.39408 -0.6385,5.03045 1.68794,5.03045 0.8092,0 1.89656,-0.83981 2.42759,-1.88116 z m -17.11327,-11.99248 c -2.90172,-2.27589 -1.83332,-11.18626 1.42243,-11.94209 1.39081,-0.31913 4.00805,0.75583 5.81611,2.39346 2.64253,2.37666 2.93333,3.69516 1.45402,6.62608 -2.13679,4.24945 -5.53795,5.39158 -8.69256,2.92255 z m 4.71611,-4.31663 c 0,-1.11694 -0.79023,-2.02393 -1.75747,-2.02393 -0.97356,0 -1.3023,0.90699 -0.73333,2.02393 0.56264,1.10856 1.35287,2.01555 1.75746,2.01555 0.40461,0 0.73334,-0.90699 0.73334,-2.01555 z m -19.61039,-10.51439 c -5.11437,-6.22298 1.66265,-15.24252 7.22589,-9.6326 3.34425,3.38442 3.01553,7.47431 -0.80288,9.96013 -4.00806,2.61181 -4.00806,2.61181 -6.42301,-0.32753 z m 6.92876,-3.22486 c 0.44884,-0.88179 -0.80287,-1.74679 -2.78794,-1.93155 -2.85115,-0.26034 -3.0914,0.0673 -1.13161,1.57043 3.02818,2.33468 2.92701,2.31787 3.91955,0.36112 z m -22.99258,-9.73336 c -3.34427,-4.07307 -0.6638,-8.88518 4.95001,-8.88518 4.93737,0 6.90978,6.139 3.07242,9.55703 -3.75518,3.33405 -4.79828,3.25005 -8.02243,-0.67185 z m 7.41554,-3.82953 c 0,-1.67962 -1.473,-3.03171 -3.31898,-3.03171 -4.09656,0 -4.40002,3.40962 -0.41724,4.66934 1.59943,0.5123 3.09771,1.03297 3.32528,1.15893 0.2276,0.13438 0.41094,-1.12532 0.41094,-2.79656 z m -31.46388,-6.81925 c -2.37702,-5.40837 -2.29484,-5.83667 1.54886,-8.3477 4.69081,-3.0485 10.34255,0.8734 9.65979,6.71007 -0.71436,6.10542 -8.73048,7.27275 -11.20865,1.63763 z m 8.80003,-3.29205 c -1.06207,-3.36762 -4.86783,-4.06468 -6.34715,-1.15054 -0.5247,1.03297 0.73966,2.26749 2.81323,2.75458 2.06725,0.48709 3.92586,1.00776 4.12817,1.15893 0.19598,0.15117 -0.0697,-1.09175 -0.59425,-2.76297 z m 56.62484,19.3828 c -7.44715,-11.28703 -11.68279,-15.56168 -22.00638,-22.17936 -7.0299,-4.50978 -11.66381,-8.25533 -10.29197,-8.33091 3.43909,-0.18476 -3.95116,-5.13964 -13.67417,-9.16233 -7.04254,-2.91413 -8.22473,-2.93933 -11.4552,-0.18475 l -3.60346,3.0653 4.81092,1.46127 c 18.0489,5.46716 44.35413,23.88418 57.09899,39.96653 4.07127,5.13963 7.61784,9.34708 7.87703,9.34708 0.25288,0 -3.68564,-6.29019 -8.75576,-13.98283 z m 13.75635,1.3689 c -0.39829,-2.51104 -0.73965,-0.93219 -0.75863,3.5188 -0.0189,4.44258 0.30977,6.50012 0.72702,4.56855 0.41092,-1.93155 0.42988,-5.56792 0.0316,-8.08735 z m -4.50118,5.85346 c 0,-0.3863 -1.6816,-2.43544 -3.7362,-4.55177 l -3.74254,-3.85472 3.16726,4.55176 c 2.97759,4.27464 4.31148,5.46715 4.31148,3.85473 z m -3.45171,-22.74203 c -2.21265,-2.88054 -5.52531,-6.11382 -7.35232,-7.18038 -1.82701,-1.05816 -0.39195,1.29332 3.18621,5.24041 7.60519,8.38129 9.96957,9.48145 4.16611,1.93997 z m -11.50578,-2.84696 c -6.43565,-6.5925 -25.09774,-19.03848 -31.57765,-21.05402 -2.28852,-0.71383 0.89138,1.92316 7.0615,5.86187 6.17014,3.9387 11.2213,7.62547 11.2213,8.19653 0,0.56269 -2.20634,-0.36111 -4.90577,-2.05753 -2.69943,-1.69641 -5.5,-3.04011 -6.23334,-2.99812 -0.73334,0.0503 1.26437,1.7636 4.43163,3.81273 3.16724,2.05754 6.84024,3.22489 8.16782,2.61181 1.56783,-0.73903 1.97874,-0.28553 1.18219,1.28491 -0.67644,1.32689 -0.61322,2.28428 0.13908,2.12473 3.65404,-0.77264 5.62013,0.41149 4.52645,2.72097 -0.65747,1.3857 -0.64483,1.93156 0.019,1.20093 0.67011,-0.72224 3.21782,-0.0503 5.6707,1.51166 6.66955,4.23264 6.74542,3.38443 0.29713,-3.21647 z m 11.55636,-3.14929 c -1.17586,-1.7216 -3.69829,-4.08147 -5.60115,-5.232 -2.07359,-1.25133 -1.46668,-0.0253 1.52354,3.07369 5.72129,5.92065 7.169,6.68489 4.07761,2.15831 z m -13.219,-5.53434 c 0,-3.87992 -20.67878,-17.87114 -30.54087,-20.65931 -7.10577,-2.01554 -8.96439,-1.93996 -10.75348,0.38631 -1.82702,2.37667 -1.52356,2.62021 1.92816,1.57044 4.15979,-1.26811 22.77765,8.13775 33.55007,16.94737 6.1259,5.00526 5.81612,4.91287 5.81612,1.75519 z m 14.95751,0.73064 c 0,-1.03296 -2.42759,-3.92192 -5.39887,-6.40775 l -5.40518,-4.52657 4.88678,6.40774 c 5.25979,6.91163 5.91727,7.41552 5.91727,4.52658 z m -22.27822,-13.97443 c -1.03677,-2.04074 -21.54487,-14.5119 -23.63109,-14.36914 -1.16953,0.0756 22.15809,15.62045 23.98512,15.97317 0.28447,0.0587 0.12643,-0.66344 -0.35403,-1.60403 z m 8.15519,-1.55365 c -4.43793,-4.17385 -17.2713,-12.05126 -22.44258,-13.78127 -2.28218,-0.75583 0.67014,1.84759 6.56209,5.80309 5.89197,3.94709 11.46152,8.08735 12.37818,9.2043 0.92299,1.11696 2.83219,2.00714 4.2483,1.96516 2.01668,-0.0503 1.85861,-0.73903 -0.74599,-3.19128 z M 393.1681,261.4233 c 0,-1.11694 -0.32874,-2.02395 -0.73335,-2.02395 -0.40458,0 -1.19481,0.90701 -1.75746,2.02395 -0.56896,1.10854 -0.24023,2.01554 0.72703,2.01554 0.97356,0 1.76378,-0.907 1.76378,-2.01554 z m 38.22825,-9.06995 c 0,-2.04913 -20.0213,-13.1766 -23.63742,-13.14301 -2.26952,0.0253 1.21381,2.77138 8.67992,6.86124 12.91554,7.0796 14.9575,7.9362 14.9575,6.28177 z m 0,-10.24566 c 0,-1.23452 -10.77875,-7.02081 -12.82702,-6.88645 -1.52359,0.0925 9.72931,7.79343 11.58163,7.9194 0.68275,0.042 1.24539,-0.4199 1.24539,-1.03295 z m -15.41268,-8.19653 c -0.54999,-0.67187 -1.98506,-0.73904 -3.17988,-0.15958 -1.32759,0.64666 -0.93564,1.12535 0.99885,1.22612 1.75747,0.0839 2.73736,-0.39471 2.18103,-1.06654 z m 14.85637,-7.68427 c 0,-1.62085 -1.01151,-2.36825 -2.35174,-1.7384 -1.94081,0.90699 -1.9661,1.40247 -0.13909,2.80495 1.22014,0.94058 2.27588,1.73002 2.35174,1.74681 0.0758,0.0168 0.13909,-1.25131 0.13909,-2.81336 z m 17.1259,-42.65392 c 0,-1.10854 -0.72702,-0.65505 -1.61207,1.00778 -0.88508,1.67122 -1.61209,3.9471 -1.61209,5.05565 0,1.11695 0.72701,0.65504 1.61209,-1.00777 0.88505,-1.67123 1.61207,-3.94711 1.61207,-5.05566 z m 4.97529,-14.05 c 0.10743,-3.47514 -2.84483,1.69641 -3.97644,6.9704 l -1.08737,5.05567 2.50345,-5.05567 c 1.37817,-2.77975 2.52877,-5.92065 2.56036,-6.9704 z m 8.48392,-15.11657 c 1.03047,1.98027 1.50461,0.24689 1.52358,-5.54779 0.0127,-4.63573 0.47413,-10.09535 1.01149,-12.13188 0.58161,-2.16251 0.40461,-2.83436 -0.41092,-1.61412 -0.77127,1.14886 -2.52875,2.00127 -3.90058,1.89377 -3.76782,-0.29644 -8.31956,5.20767 -8.23737,9.97778 0.0569,3.36596 0.72069,2.78228 3.25574,-2.84024 3.76151,-8.3645 4.27358,-7.25342 1.00517,2.19779 -2.04828,5.91562 -1.99769,7.22991 0.41725,11.15938 l 2.73104,4.45267 0.55632,-5.21353 c 0.42357,-3.9849 0.90404,-4.53496 2.04828,-2.33383 z m 4.31151,-12.7903 c -0.4615,-1.38988 -0.83448,-0.25279 -0.83448,2.52782 0,2.77978 0.37298,3.91773 0.83448,2.52699 0.46151,-1.38987 0.46151,-3.66492 0,-5.05481 z m 13.8575,-10.26331 c 0,-0.36197 -2.05459,-2.86375 -4.57068,-5.56038 l -4.57072,-4.90197 4.03335,5.56039 c 3.76149,5.19758 5.10805,6.48835 5.10805,4.90196 z" />
  </g>
</svg>
